<?xml version="1.0" encoding="UTF-8" standalone="no"?>
<!-- Created with Inkscape (http://www.inkscape.org/) -->

<svg
   width="210mm"
   height="297mm"
   viewBox="0 0 210 297"
   version="1.1"
   id="svg1"
   inkscape:version="1.4.2 (ebf0e940, 2025-05-08)"
   sodipodi:docname="characters_black_3.svg"
   inkscape:export-filename="characters_black_3.pdf"
   inkscape:export-xdpi="96"
   inkscape:export-ydpi="96"
   xmlns:inkscape="http://www.inkscape.org/namespaces/inkscape"
   xmlns:sodipodi="http://sodipodi.sourceforge.net/DTD/sodipodi-0.dtd"
   xmlns="http://www.w3.org/2000/svg"
   xmlns:svg="http://www.w3.org/2000/svg">
  <sodipodi:namedview
     id="namedview1"
     pagecolor="#ffffff"
     bordercolor="#000000"
     borderopacity="0.25"
     inkscape:showpageshadow="2"
     inkscape:pageopacity="0.0"
     inkscape:pagecheckerboard="0"
     inkscape:deskcolor="#d1d1d1"
     inkscape:document-units="mm"
     showgrid="true"
     inkscape:zoom="0.89887065"
     inkscape:cx="396.60879"
     inkscape:cy="505.07823"
     inkscape:window-width="3104"
     inkscape:window-height="1327"
     inkscape:window-x="0"
     inkscape:window-y="25"
     inkscape:window-maximized="0"
     inkscape:current-layer="layer1">
    <inkscape:grid
       id="grid1"
       units="mm"
       originx="0"
       originy="0"
       spacingx="0.99999998"
       spacingy="1"
       empcolor="#0099e5"
       empopacity="0.30196078"
       color="#0099e5"
       opacity="0.14901961"
       empspacing="5"
       enabled="true"
       visible="true" />
  </sodipodi:namedview>
  <defs
     id="defs1" />
  <g
     inkscape:label="Ebene 1"
     inkscape:groupmode="layer"
     id="layer1">
    <path
       id="rect1"
       style="fill:none;stroke:#ffffff;stroke-width:0.264583"
       d="M 5.0039625,5.0039654 H 40.003963 V 75.003965 H 5.0039625 Z" />
    <path
       id="rect1-7"
       style="fill:none;stroke:#ffffff;stroke-width:0.264583"
       d="m 44.72448,5.1527252 h 35 V 75.152725 h -35 z" />
    <path
       id="rect1-6"
       style="fill:none;stroke:#ffffff;stroke-width:0.264583"
       d="M 85.328125,5.0336561 H 120.32813 V 75.033656 H 85.328125 Z" />
    <path
       id="rect1-70"
       style="fill:none;stroke:#ffffff;stroke-width:0.264583"
       d="m 125.44884,4.745954 h 35 v 70 h -35 z" />
    <path
       id="rect1-1"
       style="fill:none;stroke:#ffffff;stroke-width:0.264583"
       d="m 164.67004,4.9212351 h 35 V 74.921235 h -35 z" />
    <path
       id="rect1-5"
       style="fill:none;stroke:#ffffff;stroke-width:0.264583"
       d="M 4.9472256,77.317947 H 39.947226 V 147.31795 H 4.9472256 Z" />
    <path
       id="rect1-71"
       style="fill:none;stroke:#ffffff;stroke-width:0.264583"
       d="m 44.909737,77.361 h 35 v 70 h -35 z" />
    <path
       id="rect1-0"
       style="fill:none;stroke:#ffffff;stroke-width:0.264583"
       d="M 85.023804,77.155952 H 120.0238 V 147.15595 H 85.023804 Z" />
    <path
       id="rect1-2"
       style="fill:none;stroke:#ffffff;stroke-width:0.264583"
       d="m 125.50521,77.185722 h 35 v 69.999998 h -35 z" />
    <path
       id="rect1-3"
       style="fill:none;stroke:#ffffff;stroke-width:0.264583"
       d="M 4.7515545,149.58939 H 39.751554 v 70 H 4.7515545 Z" />
    <path
       id="rect1-3-7"
       style="fill:none;stroke:#ffffff;stroke-width:0.264583"
       d="M 5.1228094,222.18752 H 40.122809 v 70 H 5.1228094 Z" />
    <path
       id="rect1-4"
       style="fill:none;stroke:#ffffff;stroke-width:0.264583"
       d="m 45.088337,150.1181 h 35 v 70 h -35 z" />
    <path
       id="rect1-54"
       style="fill:none;stroke:#ffffff;stroke-width:0.264583"
       d="M 84.954597,150.15118 H 119.9546 v 70 H 84.954597 Z" />
    <path
       id="rect1-541"
       style="fill:none;stroke:#ffffff;stroke-width:0.264583"
       d="m 125.27672,150.23384 h 35 v 70 h -35 z" />
    <path
       id="rect1-22"
       style="fill:none;stroke:#ffffff;stroke-width:0.264583"
       d="m 165.36481,150.17764 h 35 v 70 h -35 z" />
    <path
       id="rect1-3-5"
       style="fill:none;stroke:#ffffff;stroke-width:0.264583"
       d="m 44.886463,222.07826 h 35 v 70 h -35 z" />
    <path
       id="rect1-3-9"
       style="fill:none;stroke:#ffffff;stroke-width:0.264583"
       d="m 85.265419,222.09805 h 35.000001 v 70 H 85.265419 Z" />
    <path
       id="rect1-3-4"
       style="fill:none;stroke:#ffffff;stroke-width:0.264583"
       d="m 125.32991,222.45528 h 35 v 70 h -35 z" />
    <path
       id="rect1-3-0"
       style="fill:none;stroke:#ffffff;stroke-width:0.264583"
       d="m 165.35484,222.27333 h 35 v 70 h -35 z" />
    <path
       id="rect1-8"
       style="fill:none;stroke:#ffffff;stroke-width:0.264583"
       d="m 165.45396,77.136009 h 35 v 70.000001 h -35 z" />
    <text
       xml:space="preserve"
       style="font-size:60.4101px;text-align:start;writing-mode:lr-tb;direction:ltr;text-anchor:start;fill:none;stroke:#808080;stroke-width:0.314636;stroke-opacity:1"
       x="-208.6673"
       y="60.989086"
       id="text1"
       transform="scale(0.840611,1.1896109)"><tspan
         id="tspan1"
         style="font-style:normal;font-variant:normal;font-weight:bold;font-stretch:condensed;font-size:60.4101px;font-family:'DIN Condensed';-inkscape-font-specification:'DIN Condensed,  Bold Condensed';fill:#ffffff;fill-opacity:1;stroke-width:0.314636"
         x="-208.6673"
         y="60.989086"
         sodipodi:role="line">AMWÜ8?</tspan></text>
    <path
       style="font-weight:bold;font-stretch:condensed;font-size:60.4101px;font-family:'DIN Condensed';-inkscape-font-specification:'DIN Condensed,  Bold Condensed';fill:#000000;stroke-width:0.314636;fill-opacity:1"
       d="m 67.075765,58.704937 7.007571,-18.06262 -0.12082,-0.12082 q -0.30205,0.241641 -0.966561,0.422871 -0.604101,0.12082 -1.631073,0.12082 -1.631073,0 -3.020505,-0.785331 -1.389432,-0.785332 -2.174764,-1.993533 -0.42287,-0.604101 -0.664511,-1.268613 -0.24164,-0.724921 -0.36246,-1.812303 -0.181231,-1.087381 -0.241641,-2.718454 -0.06041,-1.691483 -0.06041,-4.228707 0,-2.114353 0.06041,-3.443376 0.06041,-1.389432 0.241641,-2.355993 0.12082,-0.906152 0.36246,-1.570663 0.302051,-0.664511 0.724921,-1.389432 1.208202,-1.993534 3.201736,-3.080915 2.053943,-1.087382 4.591167,-1.087382 2.537224,0 4.530758,1.147792 1.993533,1.087382 3.201735,3.020505 0.422871,0.724921 0.724921,1.389432 0.302051,0.664511 0.483281,1.570663 0.12082,0.966561 0.18123,2.355993 0.06041,1.329023 0.06041,3.443376 0,1.993533 -0.06041,3.322556 -0.06041,1.268612 -0.18123,2.174763 -0.18123,0.966562 -0.422871,1.751893 -0.18123,0.724921 -0.483281,1.570663 l -8.094953,21.626815 z m 3.926656,-26.157573 q 0,1.389432 0.906152,2.235174 0.906151,0.845741 2.114353,0.845741 1.208202,0 2.114354,-0.845741 0.906151,-0.845742 0.906151,-2.235174 v -7.974133 q 0,-1.389432 -0.906151,-2.235174 -0.906152,-0.845741 -2.114354,-0.845741 -1.208202,0 -2.114353,0.845741 -0.906152,0.845742 -0.906152,2.235174 z"
       id="text1-7"
       transform="scale(0.840611,1.1896109)"
       aria-label="9" />
    <path
       style="font-weight:bold;font-stretch:condensed;font-size:60.4101px;font-family:'DIN Condensed';-inkscape-font-specification:'DIN Condensed,  Bold Condensed';fill:#000000;stroke-width:0.314636;fill-opacity:1"
       d="m 119.24451,43.590149 v -6.16183 h 6.16183 v 6.16183 z m 0,-13.713093 v -6.16183 h 6.16183 v 6.16183 z"
       id="text1-7-3"
       transform="scale(0.840611,1.1896109)"
       aria-label=":" />
    <path
       style="font-weight:bold;font-stretch:condensed;font-size:60.4101px;font-family:'DIN Condensed';-inkscape-font-specification:'DIN Condensed,  Bold Condensed';fill:#000000;stroke-width:0.314636;fill-opacity:1"
       d="m 166.97256,58.362999 v -6.16183 h 6.16183 v 6.16183 z"
       id="text1-7-9"
       transform="scale(0.840611,1.1896109)"
       aria-label="." />
    <path
       style="font-weight:bold;font-stretch:condensed;font-size:60.4101px;font-family:'DIN Condensed';-inkscape-font-specification:'DIN Condensed,  Bold Condensed';fill:#000000;stroke-width:0.314636;fill-opacity:1"
       d="m 207.61974,36.639169 v -6.16183 h 18.18344 v 6.16183 z"
       id="text1-7-97"
       transform="scale(0.840611,1.1896109)"
       aria-label="-" />
    <path
       style="font-weight:bold;font-stretch:condensed;font-size:60.4101px;font-family:'DIN Condensed';-inkscape-font-specification:'DIN Condensed,  Bold Condensed';fill:#000000;stroke-width:0.314636;fill-opacity:1"
       d="m 17.460694,88.739893 v -3.564196 q 0,-1.872713 0.724921,-3.564196 0.724921,-1.691483 1.993533,-2.960095 1.268612,-1.208202 2.960095,-1.933123 1.691483,-0.724921 3.624606,-0.724921 2.235174,0 4.047477,0.906151 1.872713,0.906152 3.080915,2.537225 0.604101,0.845741 0.966561,1.570662 0.422871,0.664511 0.664512,1.510253 0.42287,1.510252 0.42287,4.289117 0,1.570662 -0.06041,2.658044 0,1.026972 -0.12082,1.812303 -0.12082,0.785331 -0.302051,1.389432 -0.18123,0.543691 -0.48328,1.026972 l -4.168297,7.128389 q -0.422871,0.72492 -0.724921,1.51026 -0.302051,0.72492 -0.302051,1.57066 v 4.83281 h -6.16183 v -5.61814 q 0,-1.32903 0.422871,-2.53723 0.42287,-1.2082 1.087381,-2.355992 l 3.866247,-6.28265 q 0.483281,-0.785331 0.604101,-1.691483 0.18123,-0.906151 0.18123,-1.812303 v -3.201735 q 0,-1.268612 -0.906151,-2.174763 -0.845742,-0.906152 -2.114354,-0.906152 -1.087382,0 -2.114353,0.785331 -1.026972,0.785332 -1.026972,2.295584 v 3.503786 z m 6.16183,30.627917 v -6.16183 h 6.16183 v 6.16183 z"
       id="text1-7-38"
       transform="scale(0.840611,1.1896109)"
       aria-label="?" />
    <path
       style="font-weight:bold;font-stretch:condensed;font-size:60.4101px;font-family:'DIN Condensed';-inkscape-font-specification:'DIN Condensed,  Bold Condensed';fill:#000000;stroke-width:0.314636;fill-opacity:1"
       d="M 72.733054,108.77183 70.37706,76.392016 h 7.732493 l -2.355994,32.379814 z m -1.570662,10.63218 v -6.16183 h 6.16183 v 6.16183 z"
       id="text1-7-2"
       transform="scale(0.840611,1.1896109)"
       aria-label="!" />
    <text
       xml:space="preserve"
       style="font-size:60.4101px;text-align:start;writing-mode:lr-tb;direction:ltr;text-anchor:start;fill:none;stroke:#808080;stroke-width:0.314636;stroke-opacity:1"
       x="62.128826"
       y="55.967381"
       id="text1-8"
       transform="scale(0.840611,1.1896109)"><tspan
         id="tspan1-9"
         style="font-style:normal;font-variant:normal;font-weight:bold;font-stretch:condensed;font-size:60.4101px;font-family:'DIN Condensed';-inkscape-font-specification:'DIN Condensed,  Bold Condensed';fill:#ffffff;fill-opacity:1;stroke:none;stroke-width:0.314636"
         x="62.128826"
         y="55.967381"
         sodipodi:role="line" /></text>
    <text
       xml:space="preserve"
       style="font-style:normal;font-variant:normal;font-weight:bold;font-stretch:condensed;font-size:50.8px;font-family:'DIN Condensed';-inkscape-font-specification:'DIN Condensed,  Bold Condensed';text-align:start;writing-mode:lr-tb;direction:ltr;text-anchor:start;fill:#ffffff;fill-opacity:1;stroke:none;stroke-width:0.264583;stroke-opacity:1"
       x="-143.64322"
       y="118.32904"
       id="text2"><tspan
         sodipodi:role="line"
         id="tspan2"
         style="stroke-width:0.264583" /></text>
  </g>
</svg>
