<?xml version="1.0" encoding="UTF-8" standalone="no"?>
<!-- Created with Inkscape (http://www.inkscape.org/) -->

<svg
   width="210mm"
   height="297mm"
   viewBox="0 0 210 297"
   version="1.1"
   id="svg1"
   inkscape:version="1.4.2 (ebf0e940, 2025-05-08)"
   sodipodi:docname="characters2.svg"
   inkscape:export-filename="characters2.pdf"
   inkscape:export-xdpi="96"
   inkscape:export-ydpi="96"
   xmlns:inkscape="http://www.inkscape.org/namespaces/inkscape"
   xmlns:sodipodi="http://sodipodi.sourceforge.net/DTD/sodipodi-0.dtd"
   xmlns="http://www.w3.org/2000/svg"
   xmlns:svg="http://www.w3.org/2000/svg">
  <sodipodi:namedview
     id="namedview1"
     pagecolor="#ffffff"
     bordercolor="#000000"
     borderopacity="0.25"
     inkscape:showpageshadow="2"
     inkscape:pageopacity="0.0"
     inkscape:pagecheckerboard="0"
     inkscape:deskcolor="#d1d1d1"
     inkscape:document-units="mm"
     showgrid="true"
     inkscape:zoom="0.89887065"
     inkscape:cx="397.16504"
     inkscape:cy="607.42889"
     inkscape:window-width="3440"
     inkscape:window-height="1327"
     inkscape:window-x="0"
     inkscape:window-y="25"
     inkscape:window-maximized="0"
     inkscape:current-layer="layer1">
    <inkscape:grid
       id="grid1"
       units="mm"
       originx="0"
       originy="0"
       spacingx="0.99999998"
       spacingy="1"
       empcolor="#0099e5"
       empopacity="0.30196078"
       color="#0099e5"
       opacity="0.14901961"
       empspacing="5"
       enabled="true"
       visible="true" />
  </sodipodi:namedview>
  <defs
     id="defs1" />
  <g
     inkscape:label="Ebene 1"
     inkscape:groupmode="layer"
     id="layer1">
    <rect
       style="fill:none;stroke:#808080;stroke-width:0.264583;stroke-opacity:1"
       id="rect1"
       width="35"
       height="70"
       x="5.0039625"
       y="5.0039654" />
    <rect
       style="fill:none;stroke:#808080;stroke-width:0.264583;stroke-opacity:1"
       id="rect1-7"
       width="35"
       height="70"
       x="44.72448"
       y="5.1527252" />
    <rect
       style="fill:none;stroke:#808080;stroke-width:0.264583;stroke-opacity:1"
       id="rect1-6"
       width="35"
       height="70"
       x="85.328125"
       y="5.0336561" />
    <rect
       style="fill:none;stroke:#808080;stroke-width:0.264583;stroke-opacity:1"
       id="rect1-70"
       width="35"
       height="70"
       x="125.44884"
       y="4.745954" />
    <rect
       style="fill:none;stroke:#808080;stroke-width:0.264583;stroke-opacity:1"
       id="rect1-1"
       width="35"
       height="70"
       x="164.67004"
       y="4.9212351" />
    <rect
       style="fill:none;stroke:#808080;stroke-width:0.264583;stroke-opacity:1"
       id="rect1-5"
       width="35"
       height="70"
       x="4.9472256"
       y="77.317947" />
    <rect
       style="fill:none;stroke:#808080;stroke-width:0.264583;stroke-opacity:1"
       id="rect1-71"
       width="35"
       height="70"
       x="44.909737"
       y="77.361" />
    <rect
       style="fill:none;stroke:#808080;stroke-width:0.264583;stroke-opacity:1"
       id="rect1-0"
       width="35"
       height="70"
       x="85.023804"
       y="77.155952" />
    <rect
       style="fill:none;stroke:#808080;stroke-width:0.264583;stroke-opacity:1"
       id="rect1-2"
       width="35"
       height="70"
       x="125.50521"
       y="77.185722" />
    <rect
       style="fill:none;stroke:#808080;stroke-width:0.264583;stroke-opacity:1"
       id="rect1-3"
       width="35"
       height="70"
       x="4.7515545"
       y="149.58939" />
    <rect
       style="fill:none;stroke:#808080;stroke-width:0.264583;stroke-opacity:1"
       id="rect1-3-7"
       width="35"
       height="70"
       x="5.1228094"
       y="222.18752" />
    <rect
       style="fill:none;stroke:#808080;stroke-width:0.264583;stroke-opacity:1"
       id="rect1-4"
       width="35"
       height="70"
       x="45.088337"
       y="150.1181" />
    <rect
       style="fill:none;stroke:#808080;stroke-width:0.264583;stroke-opacity:1"
       id="rect1-54"
       width="35"
       height="70"
       x="84.954597"
       y="150.15118" />
    <rect
       style="fill:none;stroke:#808080;stroke-width:0.264583;stroke-opacity:1"
       id="rect1-541"
       width="35"
       height="70"
       x="125.27672"
       y="150.23384" />
    <rect
       style="fill:none;stroke:#808080;stroke-width:0.264583;stroke-opacity:1"
       id="rect1-22"
       width="35"
       height="70"
       x="165.36481"
       y="150.17764" />
    <rect
       style="fill:none;stroke:#808080;stroke-width:0.264583;stroke-opacity:1"
       id="rect1-3-5"
       width="35"
       height="70"
       x="44.886463"
       y="222.07826" />
    <rect
       style="fill:none;stroke:#808080;stroke-width:0.264583;stroke-opacity:1"
       id="rect1-3-9"
       width="35"
       height="70"
       x="85.265419"
       y="222.09805" />
    <rect
       style="fill:none;stroke:#808080;stroke-width:0.264583;stroke-opacity:1"
       id="rect1-3-4"
       width="35"
       height="70"
       x="125.32991"
       y="222.45528" />
    <rect
       style="fill:none;stroke:#808080;stroke-width:0.264583;stroke-opacity:1"
       id="rect1-3-0"
       width="35"
       height="70"
       x="165.35484"
       y="222.27333" />
    <rect
       style="fill:none;stroke:#808080;stroke-width:0.264583;stroke-opacity:1"
       id="rect1-8"
       width="35"
       height="70"
       x="165.45396"
       y="77.136009" />
    <text
       xml:space="preserve"
       style="font-size:60.4101px;text-align:start;writing-mode:lr-tb;direction:ltr;text-anchor:start;fill:none;stroke:#808080;stroke-width:0.314636;stroke-opacity:1"
       x="-208.6673"
       y="60.989086"
       id="text1"
       transform="scale(0.840611,1.1896109)"><tspan
         id="tspan1"
         style="font-style:normal;font-variant:normal;font-weight:bold;font-stretch:condensed;font-size:60.4101px;font-family:'DIN Condensed';-inkscape-font-specification:'DIN Condensed,  Bold Condensed';fill:#ffffff;fill-opacity:1;stroke-width:0.314636"
         x="-208.6673"
         y="60.989086"
         sodipodi:role="line">AMWÜ8?</tspan></text>
    <path
       style="font-weight:bold;font-stretch:condensed;font-size:60.4101px;font-family:'DIN Condensed';-inkscape-font-specification:'DIN Condensed,  Bold Condensed';fill:#ffffff;stroke-width:0.314636"
       d="M 70.941981,58.704937 V 21.492316 h -7.128392 v -5.79937 h 20.418614 v 5.79937 h -7.128392 v 37.212621 z"
       id="text1-7"
       transform="scale(0.840611,1.1896109)"
       aria-label="T" />
    <path
       style="font-weight:bold;font-stretch:condensed;font-size:60.4101px;font-family:'DIN Condensed';-inkscape-font-specification:'DIN Condensed,  Bold Condensed';fill:#ffffff;stroke-width:0.314636"
       d="M 132.29317,15.230475 V 48.57685 q 0,2.114354 -0.78533,3.926657 -0.72492,1.751892 -2.11435,3.141325 -1.38944,1.389432 -3.20174,2.174763 -1.8123,0.785332 -3.86625,0.785332 -2.05394,0 -3.86624,-0.785332 -1.7519,-0.785331 -3.14133,-2.174763 -1.38943,-1.389433 -2.17476,-3.141325 -0.78533,-1.812303 -0.78533,-3.926657 V 15.230475 h 6.16183 v 32.742274 q 0,2.295584 1.08738,3.382966 1.08738,1.087381 2.71845,1.087381 1.63108,0 2.71846,-1.087381 1.08738,-1.087382 1.08738,-3.382966 V 15.230475 Z"
       id="text1-7-3"
       transform="scale(0.840611,1.1896109)"
       aria-label="U" />
    <path
       style="font-weight:bold;font-stretch:condensed;font-size:60.4101px;font-family:'DIN Condensed';-inkscape-font-specification:'DIN Condensed,  Bold Condensed';fill:#ffffff;stroke-width:0.314636"
       d="m 181.56163,15.351008 -8.81987,43.011991 h -5.43691 l -8.75946,-43.011991 h 6.52429 l 4.89322,30.02382 h 0.12082 l 4.95362,-30.02382 z"
       id="text1-7-9"
       transform="scale(0.840611,1.1896109)"
       aria-label="V" />
    <path
       style="font-weight:bold;font-stretch:condensed;font-size:60.4101px;font-family:'DIN Condensed';-inkscape-font-specification:'DIN Condensed,  Bold Condensed';fill:#ffffff;stroke-width:0.314636"
       d="m 233.65649,15.498351 -6.40347,43.011991 h -5.79937 l -4.71198,-27.909466 h -0.12083 l -4.65157,27.909466 h -5.79937 l -6.40347,-43.011991 h 6.52429 l 3.08091,27.305365 h 0.12082 l 4.83281,-27.305365 h 4.71199 l 5.01404,27.969876 h 0.12082 l 2.96009,-27.969876 z"
       id="text1-7-97"
       transform="scale(0.840611,1.1896109)"
       aria-label="W" />
    <path
       style="font-weight:bold;font-stretch:condensed;font-size:60.4101px;font-family:'DIN Condensed';-inkscape-font-specification:'DIN Condensed,  Bold Condensed';fill:#ffffff;stroke-width:0.314636"
       d="M 14.832882,119.36781 23.531936,96.834846 15.497393,76.355823 h 6.524291 l 4.651577,12.74653 4.711988,-12.74653 h 6.524291 l -8.215774,20.479023 8.880285,22.532964 H 32.04976 l -5.376499,-14.49842 -5.316089,14.49842 z"
       id="text1-7-38"
       transform="scale(0.840611,1.1896109)"
       aria-label="X" />
    <path
       style="font-weight:bold;font-stretch:condensed;font-size:60.4101px;font-family:'DIN Condensed';-inkscape-font-specification:'DIN Condensed,  Bold Condensed';fill:#ffffff;stroke-width:0.314636"
       d="M 71.162429,119.40401 V 101.22057 L 62.705015,76.392016 h 6.524291 l 4.953628,17.096058 h 0.12082 l 4.953628,-17.096058 h 6.524291 l -8.457414,24.828554 v 18.18344 z"
       id="text1-7-2"
       transform="scale(0.840611,1.1896109)"
       aria-label="Y" />
    <path
       style="font-weight:bold;font-stretch:condensed;font-size:60.4101px;font-family:'DIN Condensed';-inkscape-font-specification:'DIN Condensed,  Bold Condensed';fill:#ffffff;stroke-width:0.314636"
       d="m 112.8113,119.23164 v -5.43691 L 124.41003,82.019023 H 113.4154 v -5.79937 h 17.70016 v 4.893218 l -11.84038,32.319399 h 11.84038 v 5.79937 z"
       id="text1-7-1"
       transform="scale(0.840611,1.1896109)"
       aria-label="Z" />
    <path
       style="font-weight:bold;font-stretch:condensed;font-size:60.4101px;font-family:'DIN Condensed';-inkscape-font-specification:'DIN Condensed,  Bold Condensed';fill:#ffffff;stroke-width:0.314636"
       d="m 173.17128,104.21455 -3.0205,-15.585802 h -0.12082 l -3.02051,15.585802 z m -15.22334,15.04212 9.6052,-43.011992 h 5.13486 l 9.60521,43.011992 h -6.16183 l -1.81231,-9.24275 h -8.397 l -1.8123,9.24275 z m 4.59117,-45.670037 v -6.16183 h 5.4369 v 6.16183 z m 9.78643,0 v -6.16183 h 5.43691 v 6.16183 z"
       id="text1-7-36"
       transform="scale(0.840611,1.1896109)"
       aria-label="Ä" />
    <path
       style="font-weight:bold;font-stretch:condensed;font-size:60.4101px;font-family:'DIN Condensed';-inkscape-font-specification:'DIN Condensed,  Bold Condensed';fill:#ffffff;stroke-width:0.314636"
       d="m 207.31388,85.989415 q 0,-2.597635 0.90615,-4.591168 0.90615,-1.993533 2.41641,-3.322555 1.44984,-1.268612 3.26214,-1.933123 1.87272,-0.664512 3.74543,-0.664512 1.87271,0 3.68501,0.664512 1.87272,0.664511 3.38297,1.933123 1.44984,1.329022 2.35599,3.322555 0.90616,1.993533 0.90616,4.591168 v 22.714195 q 0,2.71846 -0.90616,4.65158 -0.90615,1.93312 -2.35599,3.20173 -1.51025,1.32903 -3.38297,1.99354 -1.8123,0.66451 -3.68501,0.66451 -1.87271,0 -3.74543,-0.66451 -1.8123,-0.66451 -3.26214,-1.99354 -1.51026,-1.26861 -2.41641,-3.20173 -0.90615,-1.93312 -0.90615,-4.65158 z m 6.16183,22.714195 q 0,2.23518 1.2082,3.32256 1.26862,1.02697 2.9601,1.02697 1.69148,0 2.89968,-1.02697 1.26862,-1.08738 1.26862,-3.32256 V 85.989415 q 0,-2.235174 -1.26862,-3.262146 -1.2082,-1.087381 -2.89968,-1.087381 -1.69148,0 -2.9601,1.087381 -1.2082,1.026972 -1.2082,3.262146 z m -3.44337,-35.521136 v -6.16183 h 5.4369 v 6.16183 z m 9.78643,0 v -6.16183 h 5.43691 v 6.16183 z"
       id="text1-7-92"
       transform="scale(0.840611,1.1896109)"
       aria-label="Ö" />
    <path
       style="font-weight:bold;font-stretch:condensed;font-size:60.4101px;font-family:'DIN Condensed';-inkscape-font-specification:'DIN Condensed,  Bold Condensed';fill:#ffffff;stroke-width:0.314636"
       d="M 36.438398,136.74562 V 170.092 q 0,2.11435 -0.785332,3.92665 -0.724921,1.7519 -2.114353,3.14133 -1.389432,1.38943 -3.201735,2.17476 -1.812303,0.78533 -3.866247,0.78533 -2.053943,0 -3.866246,-0.78533 -1.751893,-0.78533 -3.141325,-2.17476 -1.389432,-1.38943 -2.174764,-3.14133 -0.785331,-1.8123 -0.785331,-3.92665 v -33.34638 h 6.16183 v 32.74228 q 0,2.29558 1.087382,3.38296 1.087382,1.08738 2.718454,1.08738 1.631073,0 2.718455,-1.08738 1.087382,-1.08738 1.087382,-3.38296 v -32.74228 z m -17.579339,-2.65804 v -6.16183 h 5.436909 v 6.16183 z m 9.786436,0 v -6.16183 h 5.436909 v 6.16183 z"
       id="text1-7-0"
       transform="scale(0.840611,1.1896109)"
       aria-label="Ü" />
    <path
       style="font-weight:bold;font-stretch:condensed;font-size:60.4101px;font-family:'DIN Condensed';-inkscape-font-specification:'DIN Condensed,  Bold Condensed';fill:#ffffff;stroke-width:0.314636"
       d="m 65.273441,146.07035 q 0,-2.17476 0.724921,-3.86625 0.785332,-1.69148 2.053944,-2.89968 1.268612,-1.2082 2.899684,-1.8123 1.691483,-0.66451 3.503786,-0.66451 1.812303,0 3.443376,0.66451 1.691483,0.6041 2.960095,1.8123 1.268612,1.2082 1.993533,2.89968 0.785331,1.69149 0.785331,3.86625 v 25.25142 q 0,2.17477 -0.785331,3.86625 -0.724921,1.69148 -1.993533,2.89968 -1.268612,1.20821 -2.960095,1.87272 -1.631073,0.6041 -3.443376,0.6041 -1.812303,0 -3.503786,-0.6041 -1.631072,-0.66451 -2.899684,-1.87272 -1.268612,-1.2082 -2.053944,-2.89968 -0.724921,-1.69148 -0.724921,-3.86625 z m 6.16183,25.25142 q 0,1.32902 0.845742,2.23518 0.845741,0.84574 2.174763,0.84574 1.329022,0 2.174764,-0.84574 0.845741,-0.90616 0.845741,-2.23518 v -25.25142 q 0,-1.32902 -0.845741,-2.17476 -0.845742,-0.90615 -2.174764,-0.90615 -1.329022,0 -2.174763,0.90615 -0.845742,0.84574 -0.845742,2.17476 z"
       id="text1-7-90"
       transform="scale(0.840611,1.1896109)"
       aria-label="0" />
    <path
       style="font-weight:bold;font-stretch:condensed;font-size:60.4101px;font-family:'DIN Condensed';-inkscape-font-specification:'DIN Condensed,  Bold Condensed';fill:#ffffff;stroke-width:0.314636"
       d="m 121.88107,180.59224 v -36.4877 l -6.16183,4.53076 v -6.52429 l 6.16183,-4.53076 h 6.16183 v 43.01199 z"
       id="text1-7-6"
       transform="scale(0.840611,1.1896109)"
       aria-label="1" />
    <path
       style="font-weight:bold;font-stretch:condensed;font-size:60.4101px;font-family:'DIN Condensed';-inkscape-font-specification:'DIN Condensed,  Bold Condensed';fill:#ffffff;stroke-width:0.314636"
       d="m 160.66642,180.66173 v -5.79937 l 11.11545,-20.96231 q 0.84575,-1.57066 0.96657,-2.71845 0.12082,-1.2082 0.12082,-2.9601 0,-0.78533 -0.0604,-1.63107 0,-0.90615 -0.30205,-1.57066 -0.30206,-0.66451 -0.90616,-1.08738 -0.6041,-0.48328 -1.75189,-0.48328 -1.38943,0 -2.23517,0.78533 -0.78533,0.78533 -0.78533,2.29558 v 3.50379 h -6.16183 v -3.38297 q 0,-1.93312 0.72492,-3.6246 0.72492,-1.69149 1.99353,-2.9601 1.2082,-1.26861 2.89969,-1.99353 1.69148,-0.78533 3.6246,-0.78533 2.41641,0 4.10789,0.90615 1.75189,0.84574 2.89968,2.35599 1.08738,1.51025 1.57067,3.44338 0.54369,1.93312 0.54369,4.10788 0,1.57067 -0.0604,2.65805 -0.0604,1.02697 -0.24164,1.99353 -0.18123,0.96656 -0.60411,1.93313 -0.42287,0.96656 -1.14779,2.35599 l -9.06151,17.45852 h 11.11546 v 6.16183 z"
       id="text1-7-31"
       transform="scale(0.840611,1.1896109)"
       aria-label="2" />
    <path
       style="font-weight:bold;font-stretch:condensed;font-size:60.4101px;font-family:'DIN Condensed';-inkscape-font-specification:'DIN Condensed,  Bold Condensed';fill:#ffffff;stroke-width:0.314636"
       d="m 215.66526,155.36314 q 2.77887,0 3.80584,-0.66451 1.08738,-0.66451 1.08738,-3.08091 v -5.55773 q 0,-1.32902 -0.84574,-2.17476 -0.78533,-0.84575 -2.17476,-0.84575 -1.63108,0 -2.356,1.02698 -0.66451,1.02697 -0.66451,1.99353 v 3.50379 h -6.16183 v -3.5642 q 0,-1.87271 0.72492,-3.5642 0.72492,-1.69148 1.99353,-2.89968 1.26862,-1.2082 2.9601,-1.93312 1.69148,-0.72493 3.62461,-0.72493 2.53722,0 4.16829,1.02698 1.69149,0.96656 2.53723,1.99353 0.6041,0.72492 1.02697,1.44984 0.48328,0.72492 0.78533,1.75189 0.54369,1.99354 0.54369,5.92019 0,2.23518 -0.12082,3.62461 -0.0604,1.38943 -0.42287,2.29558 -0.42287,0.96657 -1.2082,1.63108 -0.72492,0.66451 -2.05395,1.44984 1.44985,0.90615 2.17477,1.69148 0.78533,0.78533 1.14779,1.81231 0.36246,1.08738 0.42287,2.59763 0.0604,1.44984 0.0604,3.74543 0,2.11435 -0.12082,3.50378 -0.0604,1.38943 -0.24164,2.29558 -0.18123,0.96657 -0.48328,1.63108 -0.30205,0.66451 -0.78533,1.38943 -1.14779,1.69148 -2.9601,2.83927 -1.75189,1.08739 -4.65157,1.08739 -1.44985,0 -3.08092,-0.48328 -1.63107,-0.48329 -2.96009,-1.57067 -1.32903,-1.08738 -2.23518,-2.83927 -0.84574,-1.75189 -0.84574,-4.28912 v -3.50378 h 6.16183 v 3.20173 q 0,1.44984 0.78533,2.4164 0.84574,0.90616 2.23518,0.90616 1.38943,0 2.17476,-0.90616 0.84574,-0.96656 0.84574,-2.53722 v -6.16183 q 0,-2.53722 -0.96656,-3.32255 -0.54369,-0.48329 -1.51025,-0.60411 -0.90616,-0.12082 -2.41641,-0.12082 z"
       id="text1-7-30"
       transform="scale(0.840611,1.1896109)"
       aria-label="3" />
    <path
       style="font-weight:bold;font-stretch:condensed;font-size:60.4101px;font-family:'DIN Condensed';-inkscape-font-specification:'DIN Condensed,  Bold Condensed';fill:#ffffff;stroke-width:0.314636"
       d="m 28.483011,241.14677 v -6.40347 h -12.26325 v -5.79937 l 8.880285,-30.80915 h 6.52429 l -9.242745,30.80915 h 6.10142 v -12.26325 h 6.16183 v 12.26325 h 2.960095 v 5.79937 h -2.960095 v 6.40347 z"
       id="text1-7-04"
       transform="scale(0.840611,1.1896109)"
       aria-label="4" />
    <path
       style="font-weight:bold;font-stretch:condensed;font-size:60.4101px;font-family:'DIN Condensed';-inkscape-font-specification:'DIN Condensed,  Bold Condensed';fill:#ffffff;stroke-width:0.314636"
       d="m 83.397961,197.68056 v 5.79937 h -12.20284 v 11.59874 q 0.845741,-0.84574 2.174763,-1.38943 1.329022,-0.6041 2.960095,-0.6041 3.141325,0 5.074448,1.93312 1.993534,1.87271 1.993534,5.67855 v 11.11546 q 0,2.17476 -0.785332,3.86624 -0.724921,1.69149 -1.993533,2.89969 -1.268612,1.2082 -2.960095,1.87271 -1.631072,0.6041 -3.443375,0.6041 -1.812303,0 -3.503786,-0.6041 -1.631073,-0.66451 -2.899685,-1.87271 -1.268612,-1.2082 -2.053943,-2.89969 -0.724921,-1.69148 -0.724921,-3.86624 v -1.81231 h 6.16183 v 1.57067 q 0,1.57066 0.845741,2.47681 0.906152,0.84574 2.295584,0.84574 1.389432,0 2.114353,-0.84574 0.785332,-0.84574 0.785332,-2.35599 v -10.08849 q 0,-1.26861 -0.845742,-2.17476 -0.785331,-0.90616 -2.053943,-0.90616 -0.785331,0 -1.329022,0.30205 -0.543691,0.24165 -0.906152,0.60411 -0.36246,0.36246 -0.543691,0.78533 -0.30205,0.54369 -0.36246,0.66451 h -5.436909 v -23.19748 z"
       id="text1-7-33"
       transform="scale(0.840611,1.1896109)"
       aria-label="5" />
    <path
       style="font-weight:bold;font-stretch:condensed;font-size:60.4101px;font-family:'DIN Condensed';-inkscape-font-specification:'DIN Condensed,  Bold Condensed';fill:#ffffff;stroke-width:0.314636"
       d="m 129.19804,197.69721 -7.00757,18.06262 0.12082,0.12082 q 0.30205,-0.24164 0.90615,-0.36246 0.66451,-0.18123 1.69149,-0.18123 1.63107,0 3.0205,0.78533 1.38943,0.78533 2.17476,1.99353 0.42287,0.66451 0.66452,1.32902 0.24164,0.66451 0.42287,1.7519 0.12082,1.08738 0.18123,2.77886 0.0604,1.63107 0.0604,4.1683 0,2.11435 -0.0604,3.50378 -0.0604,1.32903 -0.18123,2.23518 -0.18123,0.96656 -0.48329,1.63107 -0.24164,0.66451 -0.66451,1.38943 -1.2082,1.99354 -3.26214,3.08092 -1.99353,1.08738 -4.53076,1.08738 -2.53722,0 -4.53076,-1.08738 -1.99353,-1.1478 -3.20173,-3.08092 -0.48328,-0.72492 -0.78533,-1.38943 -0.24164,-0.66451 -0.36246,-1.63107 -0.18123,-0.90615 -0.24164,-2.23518 -0.0604,-1.38943 -0.0604,-3.50378 0,-1.99354 0.0604,-3.26215 0.0604,-1.32902 0.18123,-2.29558 0.12082,-0.90615 0.36246,-1.63107 0.24164,-0.78534 0.54369,-1.63108 l 8.09495,-21.62681 z m -3.92665,26.15757 q 0,-1.38943 -0.90616,-2.23517 -0.90615,-0.84574 -2.11435,-0.84574 -1.2082,0 -2.11435,0.84574 -0.90615,0.84574 -0.90615,2.23517 v 7.97413 q 0,1.38944 0.90615,2.23518 0.90615,0.84574 2.11435,0.84574 1.2082,0 2.11435,-0.84574 0.90616,-0.84574 0.90616,-2.23518 z"
       id="text1-7-10"
       transform="scale(0.840611,1.1896109)"
       aria-label="6" />
    <path
       style="font-weight:bold;font-stretch:condensed;font-size:60.4101px;font-family:'DIN Condensed';-inkscape-font-specification:'DIN Condensed,  Bold Condensed';fill:#ffffff;stroke-width:0.314636"
       d="m 162.11913,241.37186 10.8134,-37.21262 h -6.76593 v 4.95362 h -5.43691 v -10.75299 h 18.36467 v 6.16183 l -10.45094,36.85016 z"
       id="text1-7-5"
       transform="scale(0.840611,1.1896109)"
       aria-label="7" />
    <path
       style="font-weight:bold;font-stretch:condensed;font-size:60.4101px;font-family:'DIN Condensed';-inkscape-font-specification:'DIN Condensed,  Bold Condensed';fill:#ffffff;stroke-width:0.314636"
       d="m 220.54662,206.66442 q 0,-1.26861 -0.90615,-2.11435 -0.90615,-0.90615 -2.11435,-0.90615 -1.2082,0 -2.11435,0.90615 -0.90616,0.84574 -0.90616,2.11435 v 6.28265 q 0,1.26861 0.90616,2.17476 0.90615,0.84575 2.11435,0.84575 1.2082,0 2.11435,-0.84575 0.90615,-0.90615 0.90615,-2.17476 z m -12.20284,2.4164 q 0,-1.75189 0.12082,-2.96009 0.12082,-1.26861 0.42287,-2.17476 0.30206,-0.90616 0.66452,-1.63108 0.42287,-0.72492 1.02697,-1.51025 1.2082,-1.57066 3.0205,-2.4164 1.81231,-0.90615 3.92666,-0.90615 2.11435,0 3.92666,0.90615 1.8123,0.84574 3.0205,2.4164 0.6041,0.78533 1.02697,1.51025 0.42287,0.72492 0.72492,1.63108 0.30205,0.90615 0.36246,2.17476 0.12082,1.2082 0.12082,2.96009 0,1.93313 -0.0604,3.26215 -0.0604,1.32902 -0.36246,2.35599 -0.30205,1.02698 -0.96656,1.87272 -0.6041,0.78533 -1.69148,1.69148 1.08738,0.84574 1.69148,1.69148 0.66451,0.84574 0.96656,1.99354 0.30205,1.14779 0.36246,2.83927 0.0604,1.63107 0.0604,4.04748 0,1.99353 -0.12082,3.32255 -0.0604,1.26861 -0.24164,2.23518 -0.18123,0.96656 -0.54369,1.63107 -0.30205,0.66451 -0.78533,1.38943 -1.02697,1.57066 -2.89968,2.71846 -1.87272,1.08738 -4.59117,1.08738 -2.71846,0 -4.59117,-1.08738 -1.87271,-1.1478 -2.89968,-2.71846 -0.48328,-0.72492 -0.84574,-1.38943 -0.30206,-0.66451 -0.48329,-1.63107 -0.18123,-0.96657 -0.30205,-2.23518 -0.0604,-1.32902 -0.0604,-3.32255 0,-2.41641 0.0604,-4.04748 0.0604,-1.69148 0.36246,-2.83927 0.30206,-1.1478 0.90616,-1.99354 0.66451,-0.84574 1.75189,-1.69148 -1.08738,-0.90615 -1.75189,-1.69148 -0.6041,-0.84574 -0.90616,-1.87272 -0.30205,-1.02697 -0.36246,-2.35599 -0.0604,-1.32902 -0.0604,-3.26215 z m 12.20284,14.49843 q 0,-1.26861 -0.90615,-2.11435 -0.90615,-0.90616 -2.11435,-0.90616 -1.2082,0 -2.11435,0.90616 -0.90616,0.84574 -0.90616,2.11435 v 8.45741 q 0,1.26861 0.90616,2.17477 0.90615,0.84574 2.11435,0.84574 1.2082,0 2.11435,-0.84574 0.90615,-0.90616 0.90615,-2.17477 z"
       id="text1-7-53"
       transform="scale(0.840611,1.1896109)"
       aria-label="8" />
    <text
       xml:space="preserve"
       style="font-size:60.4101px;text-align:start;writing-mode:lr-tb;direction:ltr;text-anchor:start;fill:none;stroke:#808080;stroke-width:0.314636;stroke-opacity:1"
       x="62.128826"
       y="55.967381"
       id="text1-8"
       transform="scale(0.840611,1.1896109)"><tspan
         id="tspan1-9"
         style="font-style:normal;font-variant:normal;font-weight:bold;font-stretch:condensed;font-size:60.4101px;font-family:'DIN Condensed';-inkscape-font-specification:'DIN Condensed,  Bold Condensed';fill:#ffffff;fill-opacity:1;stroke:none;stroke-width:0.314636"
         x="62.128826"
         y="55.967381"
         sodipodi:role="line" /></text>
    <text
       xml:space="preserve"
       style="font-style:normal;font-variant:normal;font-weight:bold;font-stretch:condensed;font-size:50.8px;font-family:'DIN Condensed';-inkscape-font-specification:'DIN Condensed,  Bold Condensed';text-align:start;writing-mode:lr-tb;direction:ltr;text-anchor:start;fill:#ffffff;fill-opacity:1;stroke:none;stroke-width:0.264583;stroke-opacity:1"
       x="-143.64322"
       y="118.32904"
       id="text2"><tspan
         sodipodi:role="line"
         id="tspan2"
         style="stroke-width:0.264583" /></text>
  </g>
</svg>
