<?xml version="1.0" encoding="UTF-8" standalone="no"?>
<!-- Created with Inkscape (http://www.inkscape.org/) -->

<svg
   width="210mm"
   height="297mm"
   viewBox="0 0 210 297"
   version="1.1"
   id="svg1"
   inkscape:version="1.4.2 (ebf0e940, 2025-05-08)"
   sodipodi:docname="characters1.svg"
   inkscape:export-filename="characters1.pdf"
   inkscape:export-xdpi="96"
   inkscape:export-ydpi="96"
   xmlns:inkscape="http://www.inkscape.org/namespaces/inkscape"
   xmlns:sodipodi="http://sodipodi.sourceforge.net/DTD/sodipodi-0.dtd"
   xmlns="http://www.w3.org/2000/svg"
   xmlns:svg="http://www.w3.org/2000/svg">
  <sodipodi:namedview
     id="namedview1"
     pagecolor="#ffffff"
     bordercolor="#000000"
     borderopacity="0.25"
     inkscape:showpageshadow="2"
     inkscape:pageopacity="0.0"
     inkscape:pagecheckerboard="0"
     inkscape:deskcolor="#d1d1d1"
     inkscape:document-units="mm"
     showgrid="true"
     inkscape:zoom="0.89887065"
     inkscape:cx="396.60879"
     inkscape:cy="505.07823"
     inkscape:window-width="1728"
     inkscape:window-height="1327"
     inkscape:window-x="0"
     inkscape:window-y="25"
     inkscape:window-maximized="0"
     inkscape:current-layer="layer1"
     inkscape:export-bgcolor="#ffffff00">
    <inkscape:grid
       id="grid1"
       units="mm"
       originx="0"
       originy="0"
       spacingx="0.99999998"
       spacingy="1"
       empcolor="#0099e5"
       empopacity="0.30196078"
       color="#0099e5"
       opacity="0.14901961"
       empspacing="5"
       enabled="true"
       visible="true" />
  </sodipodi:namedview>
  <defs
     id="defs1" />
  <g
     inkscape:label="Ebene 1"
     inkscape:groupmode="layer"
     id="layer1">
    <rect
       style="fill:none;stroke:#808080;stroke-width:0.264583;stroke-opacity:1"
       id="rect1"
       width="35"
       height="70"
       x="5.0039625"
       y="5.0039654" />
    <rect
       style="fill:none;stroke:#808080;stroke-width:0.264583;stroke-opacity:1"
       id="rect1-7"
       width="35"
       height="70"
       x="44.72448"
       y="5.1527252" />
    <rect
       style="fill:none;stroke:#808080;stroke-width:0.264583;stroke-opacity:1"
       id="rect1-6"
       width="35"
       height="70"
       x="85.328125"
       y="5.0336561" />
    <rect
       style="fill:none;stroke:#808080;stroke-width:0.264583;stroke-opacity:1"
       id="rect1-70"
       width="35"
       height="70"
       x="125.44884"
       y="4.745954" />
    <rect
       style="fill:none;stroke:#808080;stroke-width:0.264583;stroke-opacity:1"
       id="rect1-1"
       width="35"
       height="70"
       x="164.67004"
       y="4.9212351" />
    <rect
       style="fill:none;stroke:#808080;stroke-width:0.264583;stroke-opacity:1"
       id="rect1-5"
       width="35"
       height="70"
       x="4.9472256"
       y="77.317947" />
    <rect
       style="fill:none;stroke:#808080;stroke-width:0.264583;stroke-opacity:1"
       id="rect1-71"
       width="35"
       height="70"
       x="44.909737"
       y="77.361" />
    <rect
       style="fill:none;stroke:#808080;stroke-width:0.264583;stroke-opacity:1"
       id="rect1-0"
       width="35"
       height="70"
       x="85.023804"
       y="77.155952" />
    <rect
       style="fill:none;stroke:#808080;stroke-width:0.264583;stroke-opacity:1"
       id="rect1-2"
       width="35"
       height="70"
       x="125.50521"
       y="77.185722" />
    <rect
       style="fill:none;stroke:#808080;stroke-width:0.264583;stroke-opacity:1"
       id="rect1-3"
       width="35"
       height="70"
       x="4.7515545"
       y="149.58939" />
    <rect
       style="fill:none;stroke:#808080;stroke-width:0.264583;stroke-opacity:1"
       id="rect1-3-7"
       width="35"
       height="70"
       x="5.1228094"
       y="222.18752" />
    <rect
       style="fill:none;stroke:#808080;stroke-width:0.264583;stroke-opacity:1"
       id="rect1-4"
       width="35"
       height="70"
       x="45.088337"
       y="150.1181" />
    <rect
       style="fill:none;stroke:#808080;stroke-width:0.264583;stroke-opacity:1"
       id="rect1-54"
       width="35"
       height="70"
       x="84.954597"
       y="150.15118" />
    <rect
       style="fill:none;stroke:#808080;stroke-width:0.264583;stroke-opacity:1"
       id="rect1-541"
       width="35"
       height="70"
       x="125.27672"
       y="150.23384" />
    <rect
       style="fill:none;stroke:#808080;stroke-width:0.264583;stroke-opacity:1"
       id="rect1-22"
       width="35"
       height="70"
       x="165.36481"
       y="150.17764" />
    <rect
       style="fill:none;stroke:#808080;stroke-width:0.264583;stroke-opacity:1"
       id="rect1-3-5"
       width="35"
       height="70"
       x="44.886463"
       y="222.07826" />
    <rect
       style="fill:none;stroke:#808080;stroke-width:0.264583;stroke-opacity:1"
       id="rect1-3-9"
       width="35"
       height="70"
       x="85.265419"
       y="222.09805" />
    <rect
       style="fill:none;stroke:#808080;stroke-width:0.264583;stroke-opacity:1"
       id="rect1-3-4"
       width="35"
       height="70"
       x="125.32991"
       y="222.45528" />
    <rect
       style="fill:none;stroke:#808080;stroke-width:0.264583;stroke-opacity:1"
       id="rect1-3-0"
       width="35"
       height="70"
       x="165.35484"
       y="222.27333" />
    <rect
       style="fill:none;stroke:#808080;stroke-width:0.264583;stroke-opacity:1"
       id="rect1-8"
       width="35"
       height="70"
       x="165.45396"
       y="77.136009" />
    <text
       xml:space="preserve"
       style="font-size:60.4101px;text-align:start;writing-mode:lr-tb;direction:ltr;text-anchor:start;fill:none;stroke:#808080;stroke-width:0.314636;stroke-opacity:1"
       x="-208.6673"
       y="60.989086"
       id="text1"
       transform="scale(0.840611,1.1896109)"><tspan
         id="tspan1"
         style="font-style:normal;font-variant:normal;font-weight:bold;font-stretch:condensed;font-size:60.4101px;font-family:'DIN Condensed';-inkscape-font-specification:'DIN Condensed,  Bold Condensed';fill:#ffffff;fill-opacity:1;stroke-width:0.314636"
         x="-208.6673"
         y="60.989086"
         sodipodi:role="line">AMWÜ8?</tspan></text>
    <path
       style="font-weight:bold;font-stretch:condensed;font-size:60.4101px;font-family:'DIN Condensed';-inkscape-font-specification:'DIN Condensed,  Bold Condensed';fill:#ffffff;stroke-width:0.314636"
       d="M 77.073642,43.662822 74.053137,28.077017 h -0.12082 L 70.911812,43.662822 Z M 61.850297,58.704937 71.455503,15.692946 h 5.134858 l 9.605206,43.011991 h -6.16183 L 78.221434,49.462192 H 69.82443 l -1.812303,9.242745 z"
       id="text1-7"
       transform="scale(0.840611,1.1896109)"
       aria-label="A" />
    <path
       style="font-weight:bold;font-stretch:condensed;font-size:60.4101px;font-family:'DIN Condensed';-inkscape-font-specification:'DIN Condensed,  Bold Condensed';fill:#ffffff;stroke-width:0.314636"
       d="m 112.35784,58.604843 v -43.01199 h 9.0011 q 2.9601,0 5.01404,0.906151 2.11435,0.906152 3.44338,2.416404 1.32902,1.510253 1.87271,3.503786 0.6041,1.933123 0.6041,4.047476 v 1.570663 q 0,1.751893 -0.30205,2.960095 -0.24164,1.208202 -0.78533,2.114353 -1.02697,1.691483 -3.14133,2.899685 2.17477,1.026972 3.20174,3.020505 1.02697,1.993533 1.02697,5.436909 v 2.416404 q 0,5.678549 -2.77886,8.699054 -2.71846,3.020505 -8.75947,3.020505 z m 6.16183,-19.935333 v 13.773503 h 2.65804 q 1.87272,0 2.89969,-0.543691 1.08738,-0.543691 1.63107,-1.510252 0.54369,-0.966562 0.66451,-2.295584 0.12082,-1.329022 0.12082,-2.899685 0,-1.631073 -0.18123,-2.839274 -0.18123,-1.208202 -0.72492,-2.053944 -0.6041,-0.845741 -1.63107,-1.208202 -1.02698,-0.422871 -2.71846,-0.422871 z m 0,-17.277288 v 11.84038 h 2.77886 q 3.08092,0 4.10789,-1.510253 1.08738,-1.570663 1.08738,-4.530757 0,-2.899685 -1.2082,-4.349527 -1.14779,-1.449843 -4.22871,-1.449843 z"
       id="text1-7-3"
       transform="scale(0.840611,1.1896109)"
       aria-label="B" />
    <path
       style="font-weight:bold;font-stretch:condensed;font-size:60.4101px;font-family:'DIN Condensed';-inkscape-font-specification:'DIN Condensed,  Bold Condensed';fill:#ffffff;stroke-width:0.314636"
       d="m 180.02111,45.737372 v 2.658044 q 0,1.993533 -0.78533,3.805836 -0.72492,1.751893 -2.05394,3.141325 -1.32903,1.389433 -3.14133,2.235174 -1.75189,0.785331 -3.80584,0.785331 -1.75189,0 -3.56419,-0.48328 -1.8123,-0.483281 -3.26215,-1.691483 -1.44984,-1.208202 -2.4164,-3.080915 -0.90615,-1.933123 -0.90615,-4.893218 V 24.533427 q 0,-2.114354 0.72492,-3.926657 0.72492,-1.812302 2.05394,-3.141325 1.32902,-1.329022 3.14133,-2.053943 1.87271,-0.785331 4.10788,-0.785331 4.34953,0 7.06799,2.839274 1.32902,1.389433 2.05394,3.322556 0.78533,1.872713 0.78533,4.107887 v 2.416403 h -6.16183 v -2.053943 q 0,-1.812303 -1.02697,-3.141325 -1.02697,-1.329022 -2.77887,-1.329022 -2.29558,0 -3.08091,1.449842 -0.72492,1.389432 -0.72492,3.564196 v 21.989276 q 0,1.872713 0.78533,3.141325 0.84574,1.268612 2.96009,1.268612 0.6041,0 1.26862,-0.18123 0.72492,-0.24164 1.32902,-0.724921 0.54369,-0.483281 0.90615,-1.329022 0.36246,-0.845742 0.36246,-2.114354 v -2.114353 z"
       id="text1-7-9"
       transform="scale(0.840611,1.1896109)"
       aria-label="C" />
    <path
       style="font-weight:bold;font-stretch:condensed;font-size:60.4101px;font-family:'DIN Condensed';-inkscape-font-specification:'DIN Condensed,  Bold Condensed';fill:#ffffff;stroke-width:0.314636"
       d="M 206.74385,58.510342 V 15.498351 h 9.12192 q 5.31609,0 8.03454,2.899685 2.77887,2.899685 2.77887,8.215773 v 20.116563 q 0,6.04101 -2.9601,8.940695 -2.89968,2.839275 -8.397,2.839275 z m 6.16183,-37.212621 v 31.413251 h 2.83927 q 2.59764,0 3.68502,-1.268612 1.08738,-1.329022 1.08738,-4.107887 V 26.613809 q 0,-2.537224 -1.02697,-3.926656 -1.02697,-1.389432 -3.74543,-1.389432 z"
       id="text1-7-97"
       transform="scale(0.840611,1.1896109)"
       aria-label="D" />
    <path
       style="font-weight:bold;font-stretch:condensed;font-size:60.4101px;font-family:'DIN Condensed';-inkscape-font-specification:'DIN Condensed,  Bold Condensed';fill:#ffffff;stroke-width:0.314636"
       d="M 17.521141,119.36781 V 76.355823 h 18.36467 v 5.799369 h -12.20284 v 12.625711 h 10.632177 v 5.799367 H 23.682971 v 12.62571 h 12.20284 v 6.16183 z"
       id="text1-7-38"
       transform="scale(0.840611,1.1896109)"
       aria-label="E" />
    <path
       style="font-weight:bold;font-stretch:condensed;font-size:60.4101px;font-family:'DIN Condensed';-inkscape-font-specification:'DIN Condensed,  Bold Condensed';fill:#ffffff;stroke-width:0.314636"
       d="M 65.060978,119.40401 V 76.392016 h 18.36467 v 5.79937 h -12.20284 v 13.048581 h 10.632177 v 5.799373 H 71.222808 v 18.36467 z"
       id="text1-7-2"
       transform="scale(0.840611,1.1896109)"
       aria-label="F" />
    <path
       style="font-weight:bold;font-stretch:condensed;font-size:60.4101px;font-family:'DIN Condensed';-inkscape-font-specification:'DIN Condensed,  Bold Condensed';fill:#ffffff;stroke-width:0.314636"
       d="m 111.63329,86.006169 q 0,-2.597634 0.90615,-4.591168 0.90615,-1.993533 2.4164,-3.322555 1.44984,-1.268612 3.26215,-1.933123 1.87271,-0.664511 3.74542,-0.664511 1.87272,0 3.68502,0.664511 1.87271,0.664511 3.38296,1.933123 1.44985,1.329022 2.356,3.322555 0.90615,1.993534 0.90615,4.591168 v 2.174763 h -6.16183 v -2.174763 q 0,-2.235174 -1.26861,-3.262146 -1.2082,-1.087381 -2.89969,-1.087381 -1.69148,0 -2.96009,1.087381 -1.2082,1.026972 -1.2082,3.262146 v 22.714201 q 0,2.23517 1.2082,3.32255 1.26861,1.02697 2.96009,1.02697 1.69149,0 2.89969,-1.02697 1.26861,-1.08738 1.26861,-3.32255 v -8.09496 h -4.89322 v -5.436906 h 11.05505 v 13.531866 q 0,2.71845 -0.90615,4.65157 -0.90615,1.93313 -2.356,3.20174 -1.51025,1.32902 -3.38296,1.99353 -1.8123,0.66451 -3.68502,0.66451 -1.87271,0 -3.74542,-0.66451 -1.81231,-0.66451 -3.26215,-1.99353 -1.51025,-1.26861 -2.4164,-3.20174 -0.90615,-1.93312 -0.90615,-4.65157 z"
       id="text1-7-1"
       transform="scale(0.840611,1.1896109)"
       aria-label="G" />
    <path
       style="font-weight:bold;font-stretch:condensed;font-size:60.4101px;font-family:'DIN Condensed';-inkscape-font-specification:'DIN Condensed,  Bold Condensed';fill:#ffffff;stroke-width:0.314636"
       d="M 160.15293,119.25667 V 76.244678 h 6.16183 v 18.42508 h 7.61168 v -18.42508 h 6.16183 v 43.011992 h -6.16183 v -19.15 h -7.61168 v 19.15 z"
       id="text1-7-36"
       transform="scale(0.840611,1.1896109)"
       aria-label="H" />
    <path
       style="font-weight:bold;font-stretch:condensed;font-size:60.4101px;font-family:'DIN Condensed';-inkscape-font-specification:'DIN Condensed,  Bold Condensed';fill:#ffffff;stroke-width:0.314636"
       d="M 214.56309,119.21487 V 76.202876 h 6.16183 v 43.011994 z"
       id="text1-7-92"
       transform="scale(0.840611,1.1896109)"
       aria-label="I" />
    <path
       style="font-weight:bold;font-stretch:condensed;font-size:60.4101px;font-family:'DIN Condensed';-inkscape-font-specification:'DIN Condensed,  Bold Condensed';fill:#ffffff;stroke-width:0.314636"
       d="m 35.743627,136.74562 v 32.8631 q 0,4.40993 -2.778865,7.37003 -1.389432,1.44984 -3.322555,2.29558 -1.872713,0.84574 -4.409937,0.84574 -2.960095,0 -4.953628,-1.26861 -1.933124,-1.32902 -3.080916,-2.59763 l 4.832808,-3.86625 q 0.664511,0.66451 1.510253,1.14779 0.906151,0.42287 1.872713,0.42287 0.543691,0 1.268612,-0.18123 0.724921,-0.24164 1.389432,-0.84574 0.664511,-0.54369 1.087382,-1.51025 0.422871,-1.02697 0.422871,-2.65804 v -32.01736 z"
       id="text1-7-0"
       transform="scale(0.840611,1.1896109)"
       aria-label="J" />
    <path
       style="font-weight:bold;font-stretch:condensed;font-size:60.4101px;font-family:'DIN Condensed';-inkscape-font-specification:'DIN Condensed,  Bold Condensed';fill:#ffffff;stroke-width:0.314636"
       d="m 62.947666,180.56444 v -43.01199 h 6.16183 v 19.63328 h 0.12082 l 9.001105,-19.63328 h 6.16183 l -8.397004,17.21688 9.967667,25.79511 h -6.524291 l -7.007571,-19.08959 -3.322556,6.22224 v 12.86735 z"
       id="text1-7-90"
       transform="scale(0.840611,1.1896109)"
       aria-label="K" />
    <path
       style="font-weight:bold;font-stretch:condensed;font-size:60.4101px;font-family:'DIN Condensed';-inkscape-font-specification:'DIN Condensed,  Bold Condensed';fill:#ffffff;stroke-width:0.314636"
       d="m 112.69879,180.59224 v -43.01199 h 6.16183 v 36.85016 h 12.20284 v 6.16183 z"
       id="text1-7-6"
       transform="scale(0.840611,1.1896109)"
       aria-label="L" />
    <path
       style="font-weight:bold;font-stretch:condensed;font-size:60.4101px;font-family:'DIN Condensed';-inkscape-font-specification:'DIN Condensed,  Bold Condensed';fill:#ffffff;stroke-width:0.314636"
       d="m 155.95442,180.66173 v -43.01199 h 5.92019 l 7.91372,22.7746 h 0.12082 l 7.85331,-22.7746 h 5.9806 v 43.01199 h -6.16183 v -26.15757 h -0.12082 l -6.10142,18.48549 h -3.08091 l -6.04101,-18.48549 h -0.12082 v 26.15757 z"
       id="text1-7-31"
       transform="scale(0.840611,1.1896109)"
       aria-label="M" />
    <path
       style="font-weight:bold;font-stretch:condensed;font-size:60.4101px;font-family:'DIN Condensed';-inkscape-font-specification:'DIN Condensed,  Bold Condensed';fill:#ffffff;stroke-width:0.314636"
       d="M 206.78497,180.61449 V 137.6025 h 5.92019 l 9.30315,25.91593 h 0.12082 V 137.6025 h 6.16183 v 43.01199 h -5.79937 l -9.42397,-25.85553 h -0.12082 v 25.85553 z"
       id="text1-7-30"
       transform="scale(0.840611,1.1896109)"
       aria-label="N" />
    <path
       style="font-weight:bold;font-stretch:condensed;font-size:60.4101px;font-family:'DIN Condensed';-inkscape-font-specification:'DIN Condensed,  Bold Condensed';fill:#ffffff;stroke-width:0.314636"
       d="m 16.582196,207.9213 q 0,-2.59763 0.906151,-4.59117 0.906152,-1.99353 2.416404,-3.32255 1.449842,-1.26862 3.262145,-1.93313 1.872713,-0.66451 3.745427,-0.66451 1.872713,0 3.685016,0.66451 1.872713,0.66451 3.382965,1.93313 1.449843,1.32902 2.355994,3.32255 0.906151,1.99354 0.906151,4.59117 v 22.7142 q 0,2.71845 -0.906151,4.65157 -0.906151,1.93313 -2.355994,3.20174 -1.510252,1.32902 -3.382965,1.99353 -1.812303,0.66451 -3.685016,0.66451 -1.872714,0 -3.745427,-0.66451 -1.812303,-0.66451 -3.262145,-1.99353 -1.510252,-1.26861 -2.416404,-3.20174 -0.906151,-1.93312 -0.906151,-4.65157 z m 6.16183,22.7142 q 0,2.23517 1.208202,3.32255 1.268612,1.02697 2.960095,1.02697 1.691482,0 2.899684,-1.02697 1.268612,-1.08738 1.268612,-3.32255 v -22.7142 q 0,-2.23517 -1.268612,-3.26215 -1.208202,-1.08738 -2.899684,-1.08738 -1.691483,0 -2.960095,1.08738 -1.208202,1.02698 -1.208202,3.26215 z"
       id="text1-7-04"
       transform="scale(0.840611,1.1896109)"
       aria-label="O" />
    <path
       style="font-weight:bold;font-stretch:condensed;font-size:60.4101px;font-family:'DIN Condensed';-inkscape-font-specification:'DIN Condensed,  Bold Condensed';fill:#ffffff;stroke-width:0.314636"
       d="m 64.217743,241.05493 v -43.01199 h 9.242745 q 2.537224,0 4.470347,0.66451 1.933123,0.66451 3.503786,2.356 1.570663,1.69148 2.174764,3.98706 0.604101,2.23518 0.604101,6.10142 0,2.89969 -0.362461,4.89322 -0.302051,1.99353 -1.389432,3.74543 -1.268612,2.11435 -3.382966,3.32255 -2.114353,1.14779 -5.557729,1.14779 h -3.141325 v 16.79401 z m 6.16183,-37.21262 v 14.61924 h 2.960095 q 1.872713,0 2.899684,-0.54369 1.026972,-0.54369 1.510253,-1.51025 0.483281,-0.90615 0.543691,-2.23517 0.12082,-1.32902 0.12082,-2.9601 0,-1.51025 -0.06041,-2.83927 -0.06041,-1.38943 -0.543691,-2.41641 -0.483281,-1.02697 -1.449842,-1.57066 -0.966562,-0.54369 -2.778865,-0.54369 z"
       id="text1-7-33"
       transform="scale(0.840611,1.1896109)"
       aria-label="P" />
    <path
       style="font-weight:bold;font-stretch:condensed;font-size:60.4101px;font-family:'DIN Condensed';-inkscape-font-specification:'DIN Condensed,  Bold Condensed';fill:#ffffff;stroke-width:0.314636"
       d="m 116.63269,229.83531 q 0,2.23517 1.20821,3.32256 1.26861,1.02697 2.96009,1.02697 0.84574,0 1.32902,-0.24164 l -2.77886,-2.23518 3.14132,-3.74542 2.47682,1.99353 v -0.12082 -22.7142 q 0,-2.23517 -1.26861,-3.26214 -1.20821,-1.08738 -2.89969,-1.08738 -1.69148,0 -2.96009,1.08738 -1.20821,1.02697 -1.20821,3.26214 z m -6.16183,-22.7142 q 0,-2.59763 0.90616,-4.59116 0.90615,-1.99354 2.4164,-3.32256 1.44984,-1.26861 3.26214,-1.93312 1.87272,-0.66451 3.74543,-0.66451 1.87271,0 3.68502,0.66451 1.87271,0.66451 3.38296,1.93312 1.44984,1.32902 2.356,3.32256 0.90615,1.99353 0.90615,4.59116 v 22.7142 q 0,2.53722 -0.90615,4.40994 l 3.80583,3.08091 -3.14132,3.74543 -3.62461,-2.9601 q -2.77886,2.23518 -6.46388,2.23518 -1.87271,0 -3.74543,-0.66451 -1.8123,-0.66451 -3.26214,-1.99354 -1.51025,-1.26861 -2.4164,-3.20173 -0.90616,-1.93313 -0.90616,-4.65158 z"
       id="text1-7-10"
       transform="scale(0.840611,1.1896109)"
       aria-label="Q" />
    <path
       style="font-weight:bold;font-stretch:condensed;font-size:60.4101px;font-family:'DIN Condensed';-inkscape-font-specification:'DIN Condensed,  Bold Condensed';fill:#ffffff;stroke-width:0.314636"
       d="m 165.01881,204.15924 v 13.41104 h 3.50378 q 1.63107,0 2.59764,-0.42287 0.96656,-0.48328 1.51025,-1.32903 0.48328,-0.84574 0.66451,-2.05394 0.18123,-1.26861 0.18123,-2.89968 0,-1.63108 -0.18123,-2.83928 -0.18123,-1.26861 -0.72492,-2.17476 -1.14779,-1.69148 -4.34953,-1.69148 z m -6.16183,37.21262 v -43.01199 h 9.90725 q 10.87382,0 10.87382,12.62571 0,3.80583 -1.2082,6.46388 -1.14779,2.65804 -4.10789,4.28911 l 6.64511,19.63329 h -6.52429 l -5.73896,-18.36467 h -3.68501 v 18.36467 z"
       id="text1-7-5"
       transform="scale(0.840611,1.1896109)"
       aria-label="R" />
    <path
       style="font-weight:bold;font-stretch:condensed;font-size:60.4101px;font-family:'DIN Condensed';-inkscape-font-specification:'DIN Condensed,  Bold Condensed';fill:#ffffff;stroke-width:0.314636"
       d="m 228.09788,210.22862 h -6.16183 v -1.38944 q 0,-2.11435 -1.02697,-3.6246 -0.96656,-1.57066 -3.32256,-1.57066 -1.26861,0 -2.05394,0.48328 -0.78533,0.48328 -1.26861,1.2082 -0.48328,0.78533 -0.66451,1.8123 -0.18123,0.96656 -0.18123,2.05394 0,1.26862 0.0604,2.11436 0.12082,0.84574 0.48328,1.51025 0.36246,0.66451 1.02697,1.14779 0.72492,0.48328 1.93312,0.96656 l 4.71199,1.87272 q 2.05394,0.78533 3.32256,1.87271 1.26861,1.02697 1.99353,2.4164 0.66451,1.44985 0.90615,3.32256 0.24164,1.8123 0.24164,4.1683 0,2.71845 -0.54369,5.07445 -0.54369,2.29558 -1.75189,3.92665 -1.26862,1.69148 -3.32256,2.65805 -2.05394,0.96656 -5.01404,0.96656 -2.23517,0 -4.16829,-0.78533 -1.93313,-0.78534 -3.32256,-2.17477 -1.38943,-1.38943 -2.23517,-3.20173 -0.78533,-1.87272 -0.78533,-4.04748 v -2.29558 h 6.16183 v 1.93312 q 0,1.69148 0.96656,3.08092 1.02697,1.32902 3.38296,1.32902 1.57067,0 2.41641,-0.42287 0.90615,-0.48328 1.38943,-1.32903 0.48328,-0.84574 0.54369,-1.99353 0.12082,-1.2082 0.12082,-2.65804 0,-1.69149 -0.12082,-2.77887 -0.12082,-1.08738 -0.48328,-1.75189 -0.42287,-0.66451 -1.14779,-1.08738 -0.66451,-0.42287 -1.81231,-0.90615 l -4.40993,-1.81231 q -3.98707,-1.63107 -5.3765,-4.28911 -1.32902,-2.71846 -1.32902,-6.76593 0,-2.41641 0.66451,-4.59117 0.66451,-2.17477 1.99353,-3.74543 1.26861,-1.57066 3.20174,-2.47681 1.99353,-0.96656 4.71198,-0.96656 2.29559,0 4.1683,0.84574 1.93312,0.84574 3.32256,2.23517 2.77886,2.89969 2.77886,6.64511 z"
       id="text1-7-53"
       transform="scale(0.840611,1.1896109)"
       aria-label="S" />
    <text
       xml:space="preserve"
       style="font-size:60.4101px;text-align:start;writing-mode:lr-tb;direction:ltr;text-anchor:start;fill:none;stroke:#808080;stroke-width:0.314636;stroke-opacity:1"
       x="62.128826"
       y="55.967381"
       id="text1-8"
       transform="scale(0.840611,1.1896109)"><tspan
         id="tspan1-9"
         style="font-style:normal;font-variant:normal;font-weight:bold;font-stretch:condensed;font-size:60.4101px;font-family:'DIN Condensed';-inkscape-font-specification:'DIN Condensed,  Bold Condensed';fill:#ffffff;fill-opacity:1;stroke:none;stroke-width:0.314636"
         x="62.128826"
         y="55.967381"
         sodipodi:role="line" /></text>
    <text
       xml:space="preserve"
       style="font-style:normal;font-variant:normal;font-weight:bold;font-stretch:condensed;font-size:50.8px;font-family:'DIN Condensed';-inkscape-font-specification:'DIN Condensed,  Bold Condensed';text-align:start;writing-mode:lr-tb;direction:ltr;text-anchor:start;fill:#ffffff;fill-opacity:1;stroke:none;stroke-width:0.264583;stroke-opacity:1"
       x="-143.64322"
       y="118.32904"
       id="text2"><tspan
         sodipodi:role="line"
         id="tspan2"
         style="stroke-width:0.264583" /></text>
  </g>
</svg>
